<?xml version="1.0" encoding="UTF-8"?>
<svg version="1.1" xmlns="http://www.w3.org/2000/svg" width="500" height="500">
<path d="M0 0 C3.92721947 0.01383935 7.85203333 -0.02032325 11.77905273 -0.05834961 C28.94997031 -0.10942253 45.02232395 1.80370096 61.76147461 5.57641602 C62.65009689 5.77188019 63.53871918 5.96734436 64.45426941 6.16873169 C92.92926714 12.47160632 119.61553943 25.45861979 143.76147461 41.57641602 C145.65555997 42.74591838 147.55131082 43.91272908 149.44897461 45.07641602 C155.28177247 48.77568309 160.5009739 53.11551142 165.76147461 57.57641602 C166.88578452 58.49392896 168.01063951 59.4107752 169.13647461 60.32641602 C171.82286641 62.62903756 174.2684368 65.0655708 176.76147461 67.57641602 C177.78925652 68.59421623 178.81793966 69.611107 179.84741211 70.62719727 C190.4457615 81.12175085 190.4457615 81.12175085 195.16381836 86.70922852 C196.28949717 88.02481402 197.45239732 89.30899519 198.64038086 90.56860352 C204.06357963 96.36325426 208.28724452 102.71028105 212.43530273 109.44506836 C213.88958659 111.78231027 215.37868054 114.09522171 216.87084961 116.40844727 C224.52730666 128.37492056 231.12926083 140.53197321 236.76147461 153.57641602 C237.12080078 154.40544434 237.48012695 155.23447266 237.8503418 156.08862305 C242.36017119 166.69399603 245.7321267 177.47402594 248.57397461 188.63891602 C248.85200928 189.72503174 249.13004395 190.81114746 249.41650391 191.93017578 C253.8025985 210.01263515 255.27544672 227.57166499 255.20751953 246.15551758 C255.19903435 249.67662636 255.22785651 253.19609194 255.25952148 256.71704102 C255.40077714 302.43406492 241.61709281 347.95859709 215.91577148 385.83422852 C214.42400563 388.08576006 213.08963319 390.41292267 211.76147461 392.76391602 C207.78977065 399.51465481 202.70358278 405.52143166 197.76147461 411.57641602 C197.3096582 412.13409668 196.8578418 412.69177734 196.39233398 413.26635742 C194.50126016 415.57573008 192.73716971 417.5956041 190.38647461 419.45141602 C188.06533887 421.33043066 186.36596835 423.12416831 184.44897461 425.38891602 C181.41384739 428.94642897 178.15386289 431.9757317 174.59350586 434.99829102 C173.11323422 436.27340774 171.70548226 437.63240836 170.32397461 439.01391602 C159.797207 449.54068363 147.96439841 457.54182178 135.02319336 464.74438477 C132.26426478 466.29401052 129.57325108 467.9067442 126.88647461 469.57641602 C95.02598427 488.71339885 56.63999891 500.45869932 19.44116211 500.84985352 C17.81442062 500.86864563 17.81442062 500.86864563 16.15481567 500.88781738 C-7.10605062 501.10446973 -29.53121435 501.18933431 -52.23852539 495.57641602 C-53.19903809 495.34647949 -54.15955078 495.11654297 -55.14916992 494.87963867 C-82.74031525 488.11001055 -108.19056672 476.29825493 -132.01098633 460.99926758 C-133.86754539 459.81338132 -135.74232309 458.65607793 -137.62133789 457.50610352 C-144.31023827 453.40891383 -150.26127965 448.6451204 -156.23852539 443.57641602 C-157.3628353 442.65890307 -158.48769029 441.74205684 -159.61352539 440.82641602 C-162.29991719 438.52379447 -164.74548758 436.08726123 -167.23852539 433.57641602 C-168.2663073 432.5586158 -169.29499044 431.54172503 -170.32446289 430.52563477 C-180.92281228 420.03108118 -180.92281228 420.03108118 -185.64086914 414.44360352 C-186.76654795 413.12801801 -187.9294481 411.84383684 -189.11743164 410.58422852 C-194.58141089 404.74600411 -198.83334121 398.36510987 -203.00268555 391.58325195 C-204.30281458 389.47201911 -205.61968792 387.37180956 -206.93774414 385.27172852 C-209.76513707 380.74205381 -212.52390733 376.17450233 -215.23852539 371.57641602 C-215.63040039 370.91367676 -216.02227539 370.2509375 -216.42602539 369.56811523 C-236.68118201 334.76335609 -246.05222704 294.64545497 -245.76000977 254.62011719 C-245.73855214 251.14325107 -245.75997049 247.66845513 -245.78540039 244.19165039 C-245.84563211 195.4635475 -229.94810192 150.032433 -203.23852539 109.57641602 C-202.86518066 109.00487793 -202.49183594 108.43333984 -202.10717773 107.84448242 C-197.84984013 101.35988306 -193.27020639 95.21341717 -188.30102539 89.26391602 C-187.82802002 88.69390869 -187.35501465 88.12390137 -186.86767578 87.53662109 C-185.70476505 86.17513887 -184.47680443 84.86972968 -183.23852539 83.57641602 C-182.57852539 83.57641602 -181.91852539 83.57641602 -181.23852539 83.57641602 C-180.9787793 82.99214844 -180.7190332 82.40788086 -180.45141602 81.8059082 C-179.15386939 79.42080437 -177.74511417 77.82450965 -175.83227539 75.90454102 C-175.17098633 75.24067383 -174.50969727 74.57680664 -173.82836914 73.89282227 C-173.1387207 73.2109082 -172.44907227 72.52899414 -171.73852539 71.82641602 C-171.04887695 71.1290332 -170.35922852 70.43165039 -169.64868164 69.71313477 C-168.98739258 69.05442383 -168.32610352 68.39571289 -167.64477539 67.71704102 C-167.03956055 67.11408203 -166.4343457 66.51112305 -165.81079102 65.88989258 C-164.23852539 64.57641602 -164.23852539 64.57641602 -162.23852539 64.57641602 C-161.97023926 63.97442383 -161.70195312 63.37243164 -161.42553711 62.75219727 C-159.49100923 59.20622596 -156.47310456 57.08588125 -153.36352539 54.57641602 C-152.66316162 54.00898682 -151.96279785 53.44155762 -151.24121094 52.85693359 C-143.4662598 46.7258827 -135.04489044 41.80755969 -126.47583008 36.8840332 C-124.53615234 35.75036734 -122.63494321 34.58158342 -120.74633789 33.36547852 C-102.19504678 21.42278984 -81.07740213 12.9735119 -59.80102539 7.32641602 C-58.55434082 6.99347534 -58.55434082 6.99347534 -57.2824707 6.65380859 C-54.2796008 5.89745721 -51.26510775 5.23201088 -48.23852539 4.57641602 C-47.52238068 4.41158722 -46.80623596 4.24675842 -46.06838989 4.07693481 C-30.70505334 0.59766999 -15.72051614 -0.07696107 0 0 Z " fill="#B97B9E" transform="translate(245.238525390625,-0.576416015625)"/>
<path d="M0 0 C2.06506263 -0.00435208 4.12794303 -0.04072917 6.19262695 -0.07861328 C24.41309825 -0.23182912 41.81089487 5.43049782 56.39770508 16.37060547 C57.89248624 17.33705881 59.39242159 18.29559264 60.89770508 19.24560547 C66.20878229 22.76454415 70.73407243 27.05242709 75.39770508 31.37060547 C76.21239258 32.08216797 77.02708008 32.79373047 77.86645508 33.52685547 C89.40760783 43.60710281 98.61670348 54.88428728 107.39770508 67.37060547 C107.79731445 67.93424805 108.19692383 68.49789062 108.60864258 69.07861328 C115.94567713 79.43786593 123.22635672 90.00874091 129.22973633 101.21044922 C130.22255554 103.04666669 131.27660857 104.84956355 132.34301758 106.64404297 C134.44735013 110.320381 136.00636995 114.08584645 137.46020508 118.05810547 C137.71769531 118.75581055 137.97518555 119.45351563 138.24047852 120.17236328 C141.47156876 129.11212247 143.43491432 138.08521387 144.85864258 147.47216797 C145.36829595 150.21247811 146.13292847 152.67203832 147.02270508 155.30810547 C149.94045543 165.57260158 150.72043223 180.59629392 145.78833008 190.30419922 C138.81394354 200.66782415 130.01929409 207.46781846 117.63305664 210.04541016 C112.8674345 210.73870512 108.08105311 210.77674347 103.27270508 210.80810547 C102.27174805 210.81817627 101.27079102 210.82824707 100.23950195 210.83862305 C90.13860026 210.72172981 81.23000682 207.88703301 71.89770508 204.24560547 C66.67637957 202.22952656 66.67637957 202.22952656 61.39770508 200.37060547 C61.39770508 199.71060547 61.39770508 199.05060547 61.39770508 198.37060547 C59.63426758 198.03029297 59.63426758 198.03029297 57.83520508 197.68310547 C53.48865843 196.72782049 49.35465895 195.38047198 45.14770508 193.93310547 C14.71166315 183.49821908 -13.91973068 187.34557146 -43.72241211 197.72167969 C-65.327491 205.17964069 -91.82013129 213.10649553 -113.62573242 202.96435547 C-126.29942687 196.19653879 -134.07915408 185.940028 -138.60229492 172.37060547 C-139.08824535 164.13748375 -139.18560089 156.41817542 -136.38354492 148.56982422 C-135.63340489 146.45818003 -135.15587131 144.44205947 -134.72729492 142.24560547 C-126.80943218 105.35995222 -109.48404288 71.05082828 -86.60229492 41.37060547 C-85.8984668 40.45666016 -85.19463867 39.54271484 -84.46948242 38.60107422 C-82.72944212 36.52249051 -80.98163695 34.80430534 -78.91479492 33.05810547 C-76.7496887 31.22273102 -74.6233672 29.39082511 -72.57495117 27.42529297 C-53.84626393 9.63827156 -25.428815 -0.0059671 0 0 Z " fill="#D1B8C6" transform="translate(247.602294921875,251.62939453125)"/>
<path d="M0 0 C1.10106079 0.06852173 1.10106079 0.06852173 2.22436523 0.13842773 C8.4759201 0.63764818 13.98753728 2.22814906 19.6875 4.875 C19.6875 5.535 19.6875 6.195 19.6875 6.875 C20.6775 6.875 21.6675 6.875 22.6875 6.875 C22.6875 7.535 22.6875 8.195 22.6875 8.875 C23.615625 9.101875 24.54375 9.32875 25.5 9.5625 C29.29996395 11.12719104 29.82695144 12.32304365 31.6875 15.875 C32.30367188 16.47054687 32.91984375 17.06609375 33.5546875 17.6796875 C38.92957159 23.21207735 42.4104529 30.96156013 45.71972656 37.89477539 C46.3402044 39.16437573 46.98523808 40.42243461 47.66040039 41.66381836 C59.06347912 62.91893434 56.8984969 92.39340943 50.6875 114.875 C50.39875 116.03773438 50.11 117.20046875 49.8125 118.3984375 C46.86130388 129.28097319 41.34961166 139.78399347 34.6875 148.875 C34.0275 148.875 33.3675 148.875 32.6875 148.875 C32.3575 150.195 32.0275 151.515 31.6875 152.875 C31.0275 152.875 30.3675 152.875 29.6875 152.875 C29.419375 153.638125 29.15125 154.40125 28.875 155.1875 C27.72954753 157.77983979 26.92334819 159.17575537 24.6875 160.875 C23.6975 160.875 22.7075 160.875 21.6875 160.875 C21.3575 162.195 21.0275 163.515 20.6875 164.875 C20.0275 164.875 19.3675 164.875 18.6875 164.875 C18.6875 165.535 18.6875 166.195 18.6875 166.875 C15.83972057 169.48546448 13.55683162 171.30176569 9.6875 171.875 C9.6875 172.535 9.6875 173.195 9.6875 173.875 C6.38985841 175.62038948 3.05586215 177.27036864 -0.3125 178.875 C-1.57513672 179.48021484 -1.57513672 179.48021484 -2.86328125 180.09765625 C-14.87060673 185.18118252 -26.16325148 183.8220096 -37.99682617 179.44970703 C-42.37982368 177.6548353 -45.14261528 175.34206141 -48.3125 171.875 C-49.40150847 170.96079983 -50.50264735 170.06044095 -51.625 169.1875 C-52.9553125 168.0428125 -52.9553125 168.0428125 -54.3125 166.875 C-54.3125 166.215 -54.3125 165.555 -54.3125 164.875 C-54.9725 164.875 -55.6325 164.875 -56.3125 164.875 C-57.8984375 162.8984375 -57.8984375 162.8984375 -59.6875 160.25 C-60.27273438 159.39148438 -60.85796875 158.53296875 -61.4609375 157.6484375 C-62.07195312 156.73320312 -62.68296875 155.81796875 -63.3125 154.875 C-63.98152344 153.9571875 -64.65054687 153.039375 -65.33984375 152.09375 C-67.728036 148.19697691 -69.10766925 144.33249931 -70.5 140 C-70.75974609 139.23558594 -71.01949219 138.47117188 -71.28710938 137.68359375 C-79.58720477 112.4187039 -74.60421532 79.56819608 -66.3125 54.875 C-65.99410156 53.91851562 -65.67570312 52.96203125 -65.34765625 51.9765625 C-62.84323776 45.16196456 -59.11147836 39.03719259 -55.3125 32.875 C-54.92835938 32.24207031 -54.54421875 31.60914062 -54.1484375 30.95703125 C-51.93954242 27.46410367 -49.29858746 24.71542466 -46.3125 21.875 C-45.549375 21.111875 -44.78625 20.34875 -44 19.5625 C-43.113125 18.675625 -42.22625 17.78875 -41.3125 16.875 C-40.66796875 16.20726563 -40.0234375 15.53953125 -39.359375 14.8515625 C-38.66328125 14.13742188 -37.9671875 13.42328125 -37.25 12.6875 C-36.59902344 12.01332031 -35.94804687 11.33914062 -35.27734375 10.64453125 C-31.73138525 7.45105372 -27.4730664 6.08905898 -23.0625 4.375 C-21.98484375 3.9521875 -20.9071875 3.529375 -19.796875 3.09375 C-13.00452496 0.71795043 -7.20697188 -0.50358374 0 0 Z " fill="#D9C3C8" transform="translate(328.3125,37.125)"/>
<path d="M0 0 C1.21623047 0.67482422 1.21623047 0.67482422 2.45703125 1.36328125 C5.41266999 3.2656048 7.58388318 5.45112951 10 8 C10.79019531 8.804375 11.58039063 9.60875 12.39453125 10.4375 C22.89068014 21.5610439 28.8293705 32.81996673 33.41113281 47.18505859 C34.10857636 49.33464206 34.90164049 51.44391998 35.6875 53.5625 C42.8736297 76.23302823 41.31143437 99.37622337 35 122 C34.64768744 123.37414438 34.29845799 124.74908502 33.953125 126.125 C32.08470637 133.23111675 29.60236547 139.59251388 26 146 C25.34 146 24.68 146 24 146 C23.63648438 147.09634766 23.63648438 147.09634766 23.265625 148.21484375 C19.66794816 156.13195358 11.30258142 161.84870929 3.75 165.625 C-9.18918738 170.36936871 -21.2120056 170.21496226 -34 165 C-38.16044313 162.91047095 -42.23727635 160.75255099 -46 158 C-46 157.34 -46 156.68 -46 156 C-46.72832031 155.74863281 -47.45664063 155.49726563 -48.20703125 155.23828125 C-64.37037739 148.07215436 -76.97852987 125.18966111 -83.05688477 109.51831055 C-85.18673628 103.76526335 -86.67823544 97.97941111 -88 92 C-88.41765625 90.56140625 -88.41765625 90.56140625 -88.84375 89.09375 C-94.45432155 68.10605643 -92.41910329 44.54166985 -82.875 25.0625 C-78.84708726 18.1587631 -73.59145479 12.64137849 -68 7 C-67.071875 5.99839844 -67.071875 5.99839844 -66.125 4.9765625 C-45.88714063 -16.52616308 -23.172106 -15.29102004 0 0 Z " fill="#D8BEC2" transform="translate(194,50)"/>
<path d="M0 0 C2.8125 2.25 2.8125 2.25 5 5 C5.49242187 5.43441406 5.98484375 5.86882812 6.4921875 6.31640625 C17.58468702 16.10540929 26.17177694 32.92656928 30.34375 46.8828125 C30.96268253 49.00424224 30.96268253 49.00424224 31.84375 50.9921875 C33.90146269 56.04120475 34.28615095 60.83251214 34.3125 66.25 C34.32059692 67.27879272 34.32059692 67.27879272 34.32885742 68.32836914 C34.27210257 72.37079499 33.61045104 75.32745852 32 79 C31.55113324 81.11843214 31.13737005 83.24446473 30.75 85.375 C28.13824207 97.84614409 23.19338224 108.46203116 16 119 C14.6668756 121.17158948 13.35067728 123.35210968 12.04296875 125.5390625 C11 127 11 127 9 128 C8.67 128.99 8.34 129.98 8 131 C6.2578125 132.71875 6.2578125 132.71875 4.125 134.5 C1.14615469 137.00265321 1.14615469 137.00265321 -1.6328125 139.71875 C-3 141 -3 141 -5 141 C-5 141.66 -5 142.32 -5 143 C-7.4115732 144.58991788 -9.81223684 146.06275047 -12.3125 147.5 C-13.68388939 148.30157774 -15.05499349 149.10364383 -16.42578125 149.90625 C-17.03848877 150.26009766 -17.65119629 150.61394531 -18.2824707 150.97851562 C-19.88746011 151.93306796 -21.44623409 152.96415606 -23 154 C-25.08954594 154.55795619 -27.19686245 155.05100656 -29.3125 155.5 C-32.61879398 156.20657154 -35.7555859 156.91082628 -38.93359375 158.0703125 C-47.42793033 160.6456655 -57.87474929 160.03105762 -65.8359375 156.18359375 C-66.55007813 155.79300781 -67.26421875 155.40242187 -68 155 C-69.04027344 154.49146484 -69.04027344 154.49146484 -70.1015625 153.97265625 C-76.23175726 150.64720311 -80.06415684 145.65062959 -84 140 C-84.83917969 138.81664062 -84.83917969 138.81664062 -85.6953125 137.609375 C-90.72296057 129.57524392 -91.99002616 120.6985228 -93.56054688 111.50732422 C-94.41576358 106.62783778 -95.27986558 101.71819522 -96.54907227 96.92749023 C-101.24798286 76.8420007 -92.54586487 52.44136834 -82.25 35.4921875 C-76.63899731 26.62891699 -76.63899731 26.62891699 -73 23 C-72.34 23 -71.68 23 -71 23 C-71 22.34 -71 21.68 -71 21 C-70.34 21 -69.68 21 -69 21 C-68.73445313 20.39929688 -68.46890625 19.79859375 -68.1953125 19.1796875 C-66.23652977 15.60778958 -63.14830499 13.50870851 -60 11 C-59.37738281 10.47921875 -58.75476563 9.9584375 -58.11328125 9.421875 C-53.10741703 5.40093741 -48.01872202 3.14339226 -42 1 C-40.56231498 0.43797305 -39.12480023 -0.12448974 -37.6875 -0.6875 C-26.28410529 -4.7463354 -11.25634041 -4.60234608 0 0 Z " fill="#DAC2C6" transform="translate(442,169)"/>
<path d="M0 0 C22.22865495 13.83723905 39.93829785 35.06519727 46.59765625 60.703125 C50.18248253 76.25168289 49.67433995 92.04426906 43.92822266 106.91015625 C42.92930028 109.62556601 42.14302503 112.39190443 41.33764648 115.16967773 C37.43500079 128.47027847 31.21316207 139.70691671 19.16015625 147.328125 C9.36517662 152.63811396 -1.54755207 153.64539179 -12.296875 150.6953125 C-20.9669018 148.0383688 -29.0523541 144.62646659 -36.77734375 139.828125 C-36.77734375 139.168125 -36.77734375 138.508125 -36.77734375 137.828125 C-37.61072266 137.69857422 -37.61072266 137.69857422 -38.4609375 137.56640625 C-51.15644922 133.52011331 -63.79205634 115.86574135 -69.77734375 104.828125 C-80.6596879 83.25037962 -86.63839408 58.43924847 -79.8125 34.4375 C-78.07218053 30.0505815 -75.7011695 26.50948742 -72.77734375 22.828125 C-71.895625 21.66410156 -71.895625 21.66410156 -70.99609375 20.4765625 C-68.98037644 17.8743045 -66.89647462 15.34688435 -64.77734375 12.828125 C-64.15617676 12.07813232 -64.15617676 12.07813232 -63.52246094 11.31298828 C-46.84837358 -8.64763968 -22.7558413 -13.44109371 0 0 Z " fill="#CFB6C8" transform="translate(99.77734375,179.171875)"/>
<path d="M0 0 C6.64849641 0.53401578 12.45407939 1.83209907 18.75 4 C19.65395508 4.30760254 20.55791016 4.61520508 21.48925781 4.93212891 C40.7773865 11.64060812 60.39318206 19.93521774 77 32 C75.203125 32.61328125 75.203125 32.61328125 73 33 C69.75 31.1875 69.75 31.1875 67 29 C67 28.34 67 27.68 67 27 C66.01 27.66 65.02 28.32 64 29 C63.01 29 62.02 29 61 29 C61 27.35 61 25.7 61 24 C59.91525391 24.07347656 59.91525391 24.07347656 58.80859375 24.1484375 C55.60487903 23.97911739 53.86153503 23.15496227 51.0625 21.625 C47.43472894 19.71079494 43.95658751 18.14532796 40 17 C40 16.34 40 15.68 40 15 C39.01 15 38.02 15 37 15 C36.67 15.66 36.34 16.32 36 17 C35.34 16.2575 34.68 15.515 34 14.75 C27.82065695 8.63912613 19.10842507 6.61453447 11 4.25 C9.93910156 3.93417969 8.87820313 3.61835938 7.78515625 3.29296875 C5.19198323 2.52202542 2.59701256 1.75788802 0 1 C0 0.67 0 0.34 0 0 Z " fill="#DAC4DA" transform="translate(307,6)"/>
<path d="M0 0 C10.30753964 3.82376471 18.70992516 10.97001654 27 18 C28.12430991 18.91751295 29.2491649 19.83435918 30.375 20.75 C34.73488194 24.48704166 38.49352744 28.4545726 42 33 C40.68 32.67 39.36 32.34 38 32 C38 31.34 38 30.68 38 30 C36.35 29.67 34.7 29.34 33 29 C32.67 27.35 32.34 25.7 32 24 C31.071875 24.103125 30.14375 24.20625 29.1875 24.3125 C28.135625 24.209375 27.08375 24.10625 26 24 C24.11400657 21.61107499 23 20.08148442 23 17 C22.38125 16.87625 21.7625 16.7525 21.125 16.625 C19 16 19 16 17 14 C15.68252676 13.30251417 14.35085807 12.63040043 13 12 C13 11.34 13 10.68 13 10 C11.35 9.67 9.7 9.34 8 9 C8 8.34 8 7.68 8 7 C6.02 7.66 4.04 8.32 2 9 C0 7 0 7 -0.125 3.375 C-0.08375 2.26125 -0.0425 1.1475 0 0 Z " fill="#D4BAD7" transform="translate(384,39)"/>
<path d="M0 0 C0.33 0 0.66 0 1 0 C0.5325399 7.31627392 -0.51527613 14.13267887 -2.5 21.1875 C-2.75773193 22.11731689 -3.01546387 23.04713379 -3.28100586 24.00512695 C-7.60971993 39.11474182 -13.35531865 53.76782257 -20 68 C-21.07421875 66.23046875 -21.07421875 66.23046875 -22 64 C-20.8125 60.3125 -20.8125 60.3125 -19 57 C-17.515 56.505 -17.515 56.505 -16 56 C-13.4480237 50.51797684 -12.76486828 44.99585883 -13 39 C-12.625 36.125 -12.625 36.125 -12 34 C-11.01 33.505 -11.01 33.505 -10 33 C-8.96523131 30.73528023 -8.96523131 30.73528023 -8.0625 28 C-7.71445312 26.99710937 -7.36640625 25.99421875 -7.0078125 24.9609375 C-6.67523438 23.98382813 -6.34265625 23.00671875 -6 22 C-5.72929687 21.24976563 -5.45859375 20.49953125 -5.1796875 19.7265625 C-2.90433479 13.28372168 -1.45339913 6.66914351 0 0 Z " fill="#D9B4BA" transform="translate(496,292)"/>
<path d="M0 0 C-0.88776002 3.69900008 -1.94581864 7.34550461 -3 11 C-3.845625 10.71125 -4.69125 10.4225 -5.5625 10.125 C-10.07163774 9.96103135 -11.39309649 11.49336341 -14.58203125 14.45703125 C-16.09597943 15.96201549 -16.09597943 15.96201549 -17 18 C-20.0625 18.625 -20.0625 18.625 -23 19 C-21.62137225 15.79665405 -20.12739156 14.00275585 -17.41015625 11.8359375 C-16.70826172 11.27132812 -16.00636719 10.70671875 -15.28320312 10.125 C-14.55037109 9.5475 -13.81753906 8.97 -13.0625 8.375 C-12.33353516 7.78976563 -11.60457031 7.20453125 -10.85351562 6.6015625 C-2.5939919 0 -2.5939919 0 0 0 Z " fill="#D4AAB2" transform="translate(106,45)"/>
<path d="M0 0 C5.51615117 8.27422676 7.49548553 19.49196854 9.8125 29.0625 C10.03139893 29.95437012 10.25029785 30.84624023 10.47583008 31.76513672 C11.53253416 36.26687487 12.26782118 40.33991138 12 45 C10.42445965 42.11371599 9.53723627 39.46657616 8.875 36.25 C8.70742188 35.45078125 8.53984375 34.6515625 8.3671875 33.828125 C8.18542969 32.92320312 8.18542969 32.92320312 8 32 C7.34 32 6.68 32 6 32 C6.02320313 31.39671875 6.04640625 30.7934375 6.0703125 30.171875 C6.08835937 29.37265625 6.10640625 28.5734375 6.125 27.75 C6.14820313 26.96109375 6.17140625 26.1721875 6.1953125 25.359375 C5.97933299 22.75034248 5.19608572 21.30291131 4 19 C3.66510625 17.34147855 3.37499334 15.6734248 3.125 14 C2.36724837 9.85680965 1.52131524 7.58229784 -2 5 C-1.34 4.67 -0.68 4.34 0 4 C0 2.68 0 1.36 0 0 Z " fill="#F2E3EF" transform="translate(485,163)"/>
<path d="M0 0 C0.165 0.639375 0.33 1.27875 0.5 1.9375 C1.77079828 4.16085222 1.77079828 4.16085222 3.84375 4.41796875 C5.26798598 4.55471605 6.69584558 4.65825733 8.125 4.7265625 C10 5 10 5 12 7 C15.20813626 7.27917295 15.20813626 7.27917295 18.9765625 7.1953125 C19.66181 7.1924826 20.3470575 7.18965271 21.05307007 7.18673706 C23.24389027 7.17553281 25.43430316 7.15042859 27.625 7.125 C29.1093691 7.11497048 30.5937446 7.10584458 32.078125 7.09765625 C35.71888261 7.07559294 39.35940156 7.04106176 43 7 C33.69177582 11.97787641 18.87783664 11.30110027 8.875 8.6875 C5.02932254 7.46941212 1.50624782 5.99003255 -2 4 C-2 3.01 -2 2.02 -2 1 C-1.34 0.67 -0.68 0.34 0 0 Z " fill="#C5A0CB" transform="translate(133,449)"/>
<path d="M0 0 C1.06486855 0.89301656 2.12675041 1.7895947 3.1875 2.6875 C4.07501953 3.43580078 4.07501953 3.43580078 4.98046875 4.19921875 C9.85382473 8.54470638 14.1002378 13.34274715 18.3125 18.3125 C19.13717773 19.28026367 19.13717773 19.28026367 19.97851562 20.26757812 C21.32091173 21.84343442 22.66072394 23.42149121 24 25 C23.67 25.66 23.34 26.32 23 27 C14.6097561 22.41463415 14.6097561 22.41463415 13 17 C12.01 16.34 11.02 15.68 10 15 C10 14.34 10 13.68 10 13 C9.01 12.67 8.02 12.34 7 12 C6.6470874 10.67171479 6.3160132 9.33754422 6 8 C4.61416962 6.32735199 4.61416962 6.32735199 2.9375 4.875 C1.27734375 3.3671875 1.27734375 3.3671875 0 2 C0 1.34 0 0.68 0 0 Z " fill="#D8C3DC" transform="translate(426,72)"/>
<path d="M0 0 C0.33 0 0.66 0 1 0 C1.20496094 0.75925781 1.40992188 1.51851563 1.62109375 2.30078125 C1.89050781 3.29464844 2.15992188 4.28851563 2.4375 5.3125 C2.83775391 6.79169922 2.83775391 6.79169922 3.24609375 8.30078125 C3.78079425 10.21517526 4.37144538 12.11433615 5 14 C5.12800594 15.58158453 5.22847191 17.16547028 5.3125 18.75 C5.97819135 26.80271798 7.91724197 35.28818676 11.19140625 42.6953125 C12.10058833 45.28670102 11.93976855 46.46262491 11 49 C7.29300011 38.91084565 4.32625462 28.84101274 2.125 18.3125 C1.91012939 17.29800781 1.69525879 16.28351563 1.47387695 15.23828125 C0.43206916 10.06065573 -0.25110932 5.28068135 0 0 Z " fill="#955F9E" transform="translate(3,283)"/>
<path d="M0 0 C-4.04780375 4.25019393 -6.94605252 6.27585374 -12.875 7 C-17.51050317 7.6597979 -20.84079393 8.81641681 -25 11 C-27.15625 10.58203125 -27.15625 10.58203125 -29 10 C-26.16844969 8.72516789 -23.33444112 7.45589019 -20.5 6.1875 C-19.70851562 5.83107422 -18.91703125 5.47464844 -18.1015625 5.10742188 C-3.81887588 -1.27295863 -3.81887588 -1.27295863 0 0 Z " fill="#DBB4B8" transform="translate(169,14)"/>
<path d="M0 0 C0.66 0.33 1.32 0.66 2 1 C1.24172908 2.17487036 0.46792245 3.33972592 -0.3125 4.5 C-0.74175781 5.1496875 -1.17101562 5.799375 -1.61328125 6.46875 C-2.07089844 6.9740625 -2.52851563 7.479375 -3 8 C-3.99 8 -4.98 8 -6 8 C-6.25523437 8.58394531 -6.51046875 9.16789062 -6.7734375 9.76953125 C-9.22176278 14.2217406 -13.37001388 18.23329218 -18.3046875 19.671875 C-20.5 19.9375 -20.5 19.9375 -24 20 C-14.28571429 12 -14.28571429 12 -11 12 C-11 11.34 -11 10.68 -11 10 C-9.35546875 8.6328125 -9.35546875 8.6328125 -7.1875 7.125 C-4.1731677 5.02759574 -2.08250387 3.03506874 0 0 Z " fill="#C89395" transform="translate(448,300)"/>
<path d="M0 0 C0.66 0.99 1.32 1.98 2 3 C1.65066406 3.68707031 1.30132812 4.37414062 0.94140625 5.08203125 C0.48636719 5.98308594 0.03132813 6.88414062 -0.4375 7.8125 C-0.88996094 8.70582031 -1.34242188 9.59914063 -1.80859375 10.51953125 C-3.0831605 13.03999478 -3.0831605 13.03999478 -4 16 C-9.27066382 21.73572239 -14.82204258 26.84870162 -22 30 C-20.86370543 26.5911163 -20.24087849 26.2433718 -17.375 24.3125 C-8.42871293 17.76253982 -4.23093331 10.16663828 0 0 Z " fill="#A66E9C" transform="translate(139,299)"/>
<path d="M0 0 C0 0.66 0 1.32 0 2 C0.66 2.33 1.32 2.66 2 3 C-0.10384698 3.81332743 -2.20808857 4.62563417 -4.3125 5.4375 C-6.07013672 6.11619141 -6.07013672 6.11619141 -7.86328125 6.80859375 C-9.89382815 7.57984755 -11.93937926 8.31312642 -14 9 C-14 9.66 -14 10.32 -14 11 C-14.886875 11.268125 -15.77375 11.53625 -16.6875 11.8125 C-20.00632551 12.87472632 -20.00632551 12.87472632 -22.75 14.6875 C-23.4925 15.120625 -24.235 15.55375 -25 16 C-25.66 15.67 -26.32 15.34 -27 15 C-23.96133765 13.05775757 -20.91854976 11.12207305 -17.875 9.1875 C-17.0190625 8.64029297 -16.163125 8.09308594 -15.28125 7.52929688 C-3.41690341 0 -3.41690341 0 0 0 Z " fill="#D9B1B2" transform="translate(140,25)"/>
<path d="M0 0 C-3.30729573 1.16124034 -6.62160648 2.30106701 -9.9375 3.4375 C-10.86369141 3.76298828 -11.78988281 4.08847656 -12.74414062 4.42382812 C-18.5564828 6.40206388 -23.87303744 7.55383144 -30 8 C-30.33 7.34 -30.66 6.68 -31 6 C-14.73713567 0.59234818 -14.73713567 0.59234818 -6 0 C-3 -1 -3 -1 0 0 Z " fill="#CCA6C3" transform="translate(336,486)"/>
<path d="M0 0 C1.27875 -0.061875 2.5575 -0.12375 3.875 -0.1875 C4.95394531 -0.23970703 4.95394531 -0.23970703 6.0546875 -0.29296875 C6.69664062 -0.19628906 7.33859375 -0.09960938 8 0 C8.66 0.99 9.32 1.98 10 3 C13.8888902 4.54061257 13.8888902 4.54061257 18 5 C19.38232443 6.62626404 20.71937515 8.2925002 22 10 C19.64308119 10.82717993 18.4003229 11.13637481 16.0012207 10.3190918 C15.31632568 9.94953369 14.63143066 9.57997559 13.92578125 9.19921875 C13.17619141 8.79896484 12.42660156 8.39871094 11.65429688 7.98632812 C10.88150391 7.55771484 10.10871094 7.12910156 9.3125 6.6875 C8.52810547 6.27048828 7.74371094 5.85347656 6.93554688 5.42382812 C1.14213471 2.28426941 1.14213471 2.28426941 0 0 Z " fill="#AA7CB6" transform="translate(126,467)"/>
<path d="M0 0 C-0.66 0.33 -1.32 0.66 -2 1 C-2 1.66 -2 2.32 -2 3 C-3.48113281 3.03867188 -3.48113281 3.03867188 -4.9921875 3.078125 C-6.27351563 3.13484375 -7.55484375 3.1915625 -8.875 3.25 C-10.15117187 3.29640625 -11.42734375 3.3428125 -12.7421875 3.390625 C-16.09188105 3.62555056 -16.09188105 3.62555056 -17.4453125 6.046875 C-17.62835938 6.69140625 -17.81140625 7.3359375 -18 8 C-19.175625 7.979375 -20.35125 7.95875 -21.5625 7.9375 C-25.47413467 7.93052739 -29.14497944 8.35749657 -33 9 C-30.15094551 6.15094551 -26.719947 5.56537048 -22.9375 4.5 C-21.78266113 4.16899292 -21.78266113 4.16899292 -20.60449219 3.83129883 C-5.7795074 -0.37287145 -5.7795074 -0.37287145 0 0 Z " fill="#F0DBE0" transform="translate(202,4)"/>
<path d="M0 0 C0.66 0 1.32 0 2 0 C0.71631339 4.66795131 -1.27785116 8.21349867 -3.9765625 12.16796875 C-5.2438481 14.0867543 -5.2438481 14.0867543 -5 17 C-5.99 17.66 -6.98 18.32 -8 19 C-8.144375 19.969375 -8.28875 20.93875 -8.4375 21.9375 C-9 25 -9 25 -11.0625 26.875 C-12.0215625 27.431875 -12.0215625 27.431875 -13 28 C-12.57384035 21.66087514 -9.45774952 16.65970912 -6.5 11.1875 C-5.98824219 10.22134766 -5.47648438 9.25519531 -4.94921875 8.25976562 C-1.17569314 1.17569314 -1.17569314 1.17569314 0 0 Z " fill="#D5B0D0" transform="translate(143,319)"/>
<path d="M0 0 C2.94833312 1.3267499 4.95908972 2.79939203 7.25 5.0625 C11.06652235 8.46508283 13.96261508 8.82324965 19 9 C19 10.32 19 11.64 19 13 C19.639375 13.268125 20.27875 13.53625 20.9375 13.8125 C23 15 23 15 24 18 C14.96368546 14.79251538 6.77127519 7.69366745 0 1 C0 0.67 0 0.34 0 0 Z " fill="#CEADD7" transform="translate(87,440)"/>
<path d="M0 0 C1.98 0.495 1.98 0.495 4 1 C4.33 2.65 4.66 4.3 5 6 C5.7425 5.87625 6.485 5.7525 7.25 5.625 C8.1575 5.74875 9.065 5.8725 10 6 C12.125 8.9375 12.125 8.9375 14 12 C14.99 12.33 15.98 12.66 17 13 C17 13.66 17 14.32 17 15 C11.91367266 13.60125998 7.01922631 11.47245805 3 8 C2.6562015 6.66932668 2.32167623 5.33619358 2 4 C1.01 3.67 0.02 3.34 -1 3 C-0.67 2.01 -0.34 1.02 0 0 Z " fill="#A16FB0" transform="translate(108,451)"/>
<path d="M0 0 C0.7425 0.53625 1.485 1.0725 2.25 1.625 C3.1575 2.07875 4.065 2.5325 5 3 C7.16086283 2.14903782 7.16086283 2.14903782 9 1 C8.85691406 2.01320313 8.85691406 2.01320313 8.7109375 3.046875 C8.54464844 4.38492187 8.54464844 4.38492187 8.375 5.75 C8.25898437 6.63171875 8.14296875 7.5134375 8.0234375 8.421875 C7.99792183 11.22859878 8.55156156 12.63384866 10 15 C7.45746665 14.62593859 6.28135992 14.31776228 4.55078125 12.36328125 C2.05847168 8.23563922 0.36901726 4.9202301 0 0 Z " fill="#9458A6" transform="translate(30,367)"/>
<path d="M0 0 C0.99 0.33 1.98 0.66 3 1 C3 13.54 3 26.08 3 39 C2.01 38.67 1.02 38.34 0 38 C0 25.46 0 12.92 0 0 Z " fill="#CD9699" transform="translate(252,126)"/>
<path d="M0 0 C0.93423645 3.01031744 1.04449911 3.86650268 0 7 C1.32 6.67 2.64 6.34 4 6 C3.54625 6.969375 3.0925 7.93875 2.625 8.9375 C1.01787163 12.60986342 0.26691582 16.23457983 -0.375 20.1796875 C-0.58125 20.78039062 -0.7875 21.38109375 -1 22 C-1.99 22.33 -2.98 22.66 -4 23 C-3.54593375 15.04601192 -2.12888539 7.67202093 0 0 Z " fill="#CCA7C6" transform="translate(7,185)"/>
<path d="M0 0 C6.98868503 0.52664225 13.02192078 2.07248534 19.625 4.375 C20.52734375 4.67921875 21.4296875 4.9834375 22.359375 5.296875 C27.34274871 6.996743 32.19244883 8.85306619 37 11 C33.08406742 12.30531086 31.86752742 11.4301567 28 10 C26.35709183 9.44310523 24.71239174 8.89148242 23.06640625 8.34375 C22.16986328 8.04339844 21.27332031 7.74304688 20.34960938 7.43359375 C19.42986328 7.12550781 18.51011719 6.81742188 17.5625 6.5 C16.64662109 6.19191406 15.73074219 5.88382813 14.78710938 5.56640625 C9.88502306 3.92651234 4.98414265 2.37115341 0 1 C0 0.67 0 0.34 0 0 Z " fill="#F3E4F0" transform="translate(307,6)"/>
<path d="M0 0 C0.97675766 3.42903326 0.89941677 5.27869046 -0.25 8.6875 C-0.50265625 9.47511719 -0.7553125 10.26273438 -1.015625 11.07421875 C-2 13 -2 13 -5 14 C-5.69419897 16.07883627 -5.69419897 16.07883627 -6 18.5 C-6.375 20.96875 -6.375 20.96875 -7 23 C-7.99 23.33 -8.98 23.66 -10 24 C-9.40915596 20.47944083 -8.4844458 17.56638778 -6.93359375 14.35546875 C-6.3293457 13.09379883 -6.3293457 13.09379883 -5.71289062 11.80664062 C-5.29201172 10.94232422 -4.87113281 10.07800781 -4.4375 9.1875 C-4.01275391 8.30384766 -3.58800781 7.42019531 -3.15039062 6.50976562 C-2.10528576 4.33735663 -1.05503238 2.16760043 0 0 Z " fill="#CFA9C2" transform="translate(28,132)"/>
<path d="M0 0 C0 0.66 0 1.32 0 2 C-0.99 2 -1.98 2 -3 2 C-3.23589844 2.63421875 -3.47179687 3.2684375 -3.71484375 3.921875 C-5 6 -5 6 -7.06640625 6.828125 C-12.80051262 7.79726974 -18.18292724 8.18764751 -24 8 C-24 7.67 -24 7.34 -24 7 C-23.44014404 6.85900879 -22.88028809 6.71801758 -22.3034668 6.57275391 C-19.76325674 5.92946935 -17.22539874 5.27734076 -14.6875 4.625 C-13.80642578 4.40328125 -12.92535156 4.1815625 -12.01757812 3.953125 C-11.17001953 3.73398437 -10.32246094 3.51484375 -9.44921875 3.2890625 C-8.66893311 3.09006348 -7.88864746 2.89106445 -7.0847168 2.68603516 C-4.41536353 1.8076088 -2.85930557 0 0 0 Z " fill="#C99598" transform="translate(424,320)"/>
<path d="M0 0 C0.99 0.33 1.98 0.66 3 1 C0.25 6.75 0.25 6.75 -2 9 C-4.38569916 11.78331568 -6.33689644 14.53019566 -8.0625 17.75 C-10 21 -10 21 -13 22 C-12.67 20.68 -12.34 19.36 -12 18 C-11.34 18 -10.68 18 -10 18 C-9.75507813 17.31550781 -9.51015625 16.63101562 -9.2578125 15.92578125 C-7.77245937 12.47072071 -5.87594838 9.3586143 -3.875 6.1875 C-3.31619141 5.2912793 -3.31619141 5.2912793 -2.74609375 4.37695312 C-1.8342952 2.91573749 -0.91764024 1.45755415 0 0 Z " fill="#C5959D" transform="translate(463,278)"/>
<path d="M0 0 C0.66 0 1.32 0 2 0 C2.66 1.32 3.32 2.64 4 4 C3.43152344 4.23589844 2.86304688 4.47179687 2.27734375 4.71484375 C-1.37462432 6.77573139 -3.86513328 9.94036226 -6.68359375 13.00390625 C-9.20525266 15.17687033 -10.73225225 15.67149626 -14 16 C-13.67 15.34 -13.34 14.68 -13 14 C-12.34 14 -11.68 14 -11 14 C-11 13.34 -11 12.68 -11 12 C-10.34 11.67 -9.68 11.34 -9 11 C-8.67 10.01 -8.34 9.02 -8 8 C-7.21625 7.54625 -6.4325 7.0925 -5.625 6.625 C-2.63409686 4.77348853 -1.70751226 3.00847398 0 0 Z " fill="#C7959C" transform="translate(358,190)"/>
<path d="M0 0 C0.99 0.33 1.98 0.66 3 1 C-2.14285714 5.42857143 -2.14285714 5.42857143 -6 6 C-6 6.66 -6 7.32 -6 8 C-11.93169624 11.18464019 -17.3895667 13.65343025 -24 15 C-22.72335591 12.44671183 -21.86968524 12.39801577 -19.25 11.375 C-12.96230056 8.70779846 -4.87956522 4.87956522 0 0 Z " fill="#D8B1B1" transform="translate(344,203)"/>
<path d="M0 0 C0.66 0.66 1.32 1.32 2 2 C1.89431593 4.60687372 1.48353297 7.10893573 1.09375 9.6875 C1.0628125 10.450625 1.031875 11.21375 1 12 C1.66 12.66 2.32 13.32 3 14 C2.071875 14.3403125 2.071875 14.3403125 1.125 14.6875 C-1.61410209 16.37929835 -2.05024472 17.99244161 -3 21 C-2.34 21.33 -1.68 21.66 -1 22 C-2.65 22.99 -4.3 23.98 -6 25 C-5.72736328 24.05253906 -5.72736328 24.05253906 -5.44921875 23.0859375 C-3.30482106 15.45408112 -1.59795595 7.76311933 0 0 Z " fill="#C397A9" transform="translate(381,138)"/>
<path d="M0 0 C0.33 0 0.66 0 1 0 C1.33849718 5.75445211 1.19864092 9.07901397 -2 14 C-2.56263997 16.32802482 -2.99355237 18.64753812 -3.375 21.01171875 C-4 23 -4 23 -7 25 C-5.63353125 16.3321012 -2.88315195 8.25329756 0 0 Z " fill="#CDA7CF" transform="translate(122,364)"/>
<path d="M0 0 C0.33 0 0.66 0 1 0 C1.29032827 9.56470344 0.46051903 18.57182803 -1 28 C-1.33 28 -1.66 28 -2 28 C-2.05859857 24.64590806 -2.09379582 21.29194983 -2.125 17.9375 C-2.14175781 16.99455078 -2.15851563 16.05160156 -2.17578125 15.08007812 C-2.21372771 9.63476062 -1.81252643 5.14500612 0 0 Z " fill="#E3C9D5" transform="translate(499,264)"/>
<path d="M0 0 C2.475 0.495 2.475 0.495 5 1 C5.33 2.32 5.66 3.64 6 5 C6.66 5 7.32 5 8 5 C7.67 6.32 7.34 7.64 7 9 C7.66 9 8.32 9 9 9 C8.67 9.66 8.34 10.32 8 11 C4.35580428 10.01508224 3.21085868 9.34173648 1.1875 6.0625 C0 3 0 3 0 0 Z " fill="#A26DB1" transform="translate(40,384)"/>
<path d="M0 0 C1 3 1 3 -0.2734375 5.6875 C-1.12808594 7.3271875 -1.12808594 7.3271875 -2 9 C-2.98307232 11.63425204 -3.80610679 14.31079512 -4.625 17 C-4.8415625 17.68578125 -5.058125 18.3715625 -5.28125 19.078125 C-6.50344544 23.03139913 -7.42209434 26.89044862 -8 31 C-8.33 31 -8.66 31 -9 31 C-9.40524955 24.78617361 -7.91158278 19.87440735 -6 14 C-5.27549772 11.41036876 -4.5534357 8.82029477 -3.84375 6.2265625 C-2.91217107 3.7682292 -1.66245149 2.02264931 0 0 Z " fill="#C99396" transform="translate(355,211)"/>
<path d="M0 0 C0.33 0 0.66 0 1 0 C2.58737168 7.14317258 1.1246241 11.49036647 -2 18 C-2.309375 18.6496875 -2.61875 19.299375 -2.9375 19.96875 C-3.60228215 21.32388284 -4.2969974 22.66429507 -5 24 C-5.66 24 -6.32 24 -7 24 C-6.58621094 22.80503906 -6.58621094 22.80503906 -6.1640625 21.5859375 C-4.7720197 17.29769826 -3.56751655 12.97213883 -2.375 8.625 C-2.14554688 7.79355469 -1.91609375 6.96210938 -1.6796875 6.10546875 C-1.11837291 4.07070335 -0.55898972 2.03540532 0 0 Z " fill="#C38C95" transform="translate(229,168)"/>
<path d="M0 0 C2.97932935 3.48930465 4.54739251 7.39716735 6.1875 11.625 C6.46013672 12.305625 6.73277344 12.98625 7.01367188 13.6875 C9 18.72550517 9 18.72550517 9 21 C8.01 21.33 7.02 21.66 6 22 C5.34 18.04 4.68 14.08 4 10 C2.68 9.67 1.36 9.34 0 9 C0 6.03 0 3.06 0 0 Z " fill="#D4BBD3" transform="translate(476,142)"/>
<path d="M0 0 C-2.31 0.66 -4.62 1.32 -7 2 C-7 1.34 -7 0.68 -7 0 C-3.86650268 -1.04449911 -3.01031744 -0.93423645 0 0 Z M-8 2 C-7.34 2.66 -6.68 3.32 -6 4 C-7.32 5.32 -8.64 6.64 -10 8 C-10 7.01 -10 6.02 -10 5 C-10.721875 5.350625 -11.44375 5.70125 -12.1875 6.0625 C-15.33467248 7.11155749 -16.88249382 7.03916873 -20 6 C-20.33 5.34 -20.66 4.68 -21 4 C-19.1746875 3.7834375 -19.1746875 3.7834375 -17.3125 3.5625 C-14.84467865 3.26548787 -12.54902437 2.892158 -10.125 2.3125 C-9.42375 2.209375 -8.7225 2.10625 -8 2 Z " fill="#C78F9A" transform="translate(193,8)"/>
<path d="M0 0 C0 0.33 0 0.66 0 1 C-4.455 1.495 -4.455 1.495 -9 2 C-9 2.33 -9 2.66 -9 3 C-13.28297531 4.05619003 -17.42985646 4.11702092 -21.8125 4.0625 C-22.50537109 4.05798828 -23.19824219 4.05347656 -23.91210938 4.04882812 C-25.60811068 4.03713156 -27.30406703 4.01919924 -29 4 C-29 3.67 -29 3.34 -29 3 C-19.25134921 1.05951027 -9.99534362 -0.51998897 0 0 Z " fill="#E9D7DE" transform="translate(231,0)"/>
<path d="M0 0 C0.66 0 1.32 0 2 0 C3 1 4 2 5 3 C5.66 3 6.32 3 7 3 C7.0825 3.886875 7.165 4.77375 7.25 5.6875 C8.09656092 9.42647738 9.62503206 11.07087287 12 14 C11.67 14.99 11.34 15.98 11 17 C0 5.10393258 0 5.10393258 0 0 Z " fill="#C7A4CD" transform="translate(112,430)"/>
<path d="M0 0 C2.97 0 5.94 0 9 0 C9.33 0.99 9.66 1.98 10 3 C13.63 3.66 17.26 4.32 21 5 C21 5.66 21 6.32 21 7 C22.32 7.66 23.64 8.32 25 9 C16.25781959 7.43889635 8.24016625 4.21518143 0 1 C0 0.67 0 0.34 0 0 Z " fill="#D5B6DC" transform="translate(153,481)"/>
<path d="M0 0 C3.53171849 0.58993071 5.33005495 1.90125873 7.9375 4.3125 C10.88234153 6.98762707 13.8627987 9.54906148 17 12 C14.69 12.66 12.38 13.32 10 14 C10 13.34 10 12.68 10 12 C10.66 11.67 11.32 11.34 12 11 C11.278125 10.79375 10.55625 10.5875 9.8125 10.375 C6.02781616 8.52471012 4.47741347 6.39759562 2 3 C2 2.34 2 1.68 2 1 C1.34 0.67 0.68 0.34 0 0 Z " fill="#955CA4" transform="translate(116,442)"/>
<path d="M0 0 C1.4800841 0.11362262 2.95910074 0.24122908 4.4375 0.375 C5.26121094 0.44460938 6.08492188 0.51421875 6.93359375 0.5859375 C7.95646484 0.79089844 7.95646484 0.79089844 9 1 C9.33 1.66 9.66 2.32 10 3 C10.99 3.33 11.98 3.66 13 4 C13 4.66 13 5.32 13 6 C13.78375 6.28875 14.5675 6.5775 15.375 6.875 C18 8 18 8 20 10 C19.01 10.33 18.02 10.66 17 11 C14.765625 9.671875 14.765625 9.671875 12.25 7.75 C8.25611579 4.81607627 4.63552918 2.71313035 0 1 C0 0.67 0 0.34 0 0 Z " fill="#C18893" transform="translate(287,258)"/>
<path d="M0 0 C1.0725 0.33 2.145 0.66 3.25 1 C3.58 1.66 3.91 2.32 4.25 3 C3.59 3 2.93 3 2.25 3 C2.25 3.66 2.25 4.32 2.25 5 C-1.38 5.33 -5.01 5.66 -8.75 6 C-4.70918367 0 -4.70918367 0 0 0 Z " fill="#B887B1" transform="translate(299.75,491)"/>
<path d="M0 0 C0.33 0 0.66 0 1 0 C0.74350113 10.3765452 -2.21406279 20.0795963 -5 30 C-5.33 30 -5.66 30 -6 30 C-6.29597469 24.5737973 -5.73738383 20.66218469 -3.8671875 15.5859375 C-2.16343876 10.50538946 -1.13992796 5.23073326 0 0 Z " fill="#F2DFE3" transform="translate(496,292)"/>
<path d="M0 0 C1.43861294 0.08746284 2.87597508 0.19565348 4.3125 0.3125 C5.11300781 0.37050781 5.91351563 0.42851562 6.73828125 0.48828125 C9.4032685 1.09124037 10.20349954 2.00900662 12 4 C12.86625 4.33 13.7325 4.66 14.625 5 C15.800625 5.495 15.800625 5.495 17 6 C17.33 6.99 17.66 7.98 18 9 C17.443125 8.690625 16.88625 8.38125 16.3125 8.0625 C13.87459567 6.94238179 11.63775814 6.43962636 9 6 C9 5.34 9 4.68 9 4 C8.01 4 7.02 4 6 4 C5.67 4.66 5.34 5.32 5 6 C3.35 4.02 1.7 2.04 0 0 Z " fill="#C3A3C2" transform="translate(338,17)"/>
<path d="M0 0 C0 0.66 0 1.32 0 2 C1.32 1.67 2.64 1.34 4 1 C4 1.66 4 2.32 4 3 C4.99 3.33 5.98 3.66 7 4 C0.4491015 3.54240047 -5.6753842 2.7899856 -12 1 C-12 0.67 -12 0.34 -12 0 C-7.22144261 -2.04795317 -4.77855739 -2.04795317 0 0 Z " fill="#9862A0" transform="translate(203,492)"/>
<path d="M0 0 C1.75 2 1.75 2 3 4 C0.34771188 5.07525194 -2.28368454 6.09456151 -5 7 C-5.99 6.34 -6.98 5.68 -8 5 C-5.96115496 0.48541456 -5.19128917 0 0 0 Z " fill="#B37293" transform="translate(382,456)"/>
<path d="M0 0 C0.66 0.33 1.32 0.66 2 1 C1.52691406 1.44988281 1.05382812 1.89976562 0.56640625 2.36328125 C-5.10166122 7.87666461 -10.08572535 13.81165414 -15 20 C-15.33 19.01 -15.66 18.02 -16 17 C-15.34 17 -14.68 17 -14 17 C-13.71125 16.4225 -13.4225 15.845 -13.125 15.25 C-12.75375 14.5075 -12.3825 13.765 -12 13 C-11.59394531 12.05253906 -11.59394531 12.05253906 -11.1796875 11.0859375 C-9.77953216 8.61016614 -8.17873859 7.19328551 -6 5.375 C-3.92339664 3.6266832 -1.92037235 1.92037235 0 0 Z " fill="#A76E97" transform="translate(45,179)"/>
<path d="M0 0 C0.33 0 0.66 0 1 0 C1.17297914 6.05427002 0.47365771 13.14577957 -3.625 17.875 C-4.305625 18.431875 -4.305625 18.431875 -5 19 C-3.57142857 3.57142857 -3.57142857 3.57142857 0 0 Z " fill="#A77099" transform="translate(13,171)"/>
<path d="M0 0 C-6.2268627 3.36912378 -11.86838431 5.1593931 -19 4 C-19.66 3.34 -20.32 2.68 -21 2 C-18.25162151 1.46892686 -15.50187625 0.94984119 -12.75 0.4375 C-11.97269531 0.28603516 -11.19539062 0.13457031 -10.39453125 -0.02148438 C-9.64042969 -0.16005859 -8.88632813 -0.29863281 -8.109375 -0.44140625 C-7.07248535 -0.63778687 -7.07248535 -0.63778687 -6.01464844 -0.83813477 C-3.78712058 -1.01710362 -2.12493038 -0.65206197 0 0 Z " fill="#9C65A2" transform="translate(185,456)"/>
<path d="M0 0 C1.98 0 3.96 0 6 0 C6.16702456 4.34263862 6.12999997 7.20960634 4 11 C3.32880451 9.5437455 2.66318193 8.08492133 2 6.625 C1.62875 5.81289063 1.2575 5.00078125 0.875 4.1640625 C0 2 0 2 0 0 Z " fill="#9558A4" transform="translate(16,336)"/>
<path d="M0 0 C4.34863652 0.56444825 7.17827655 2.15427964 10.8125 4.5625 C12.27623047 5.52349609 12.27623047 5.52349609 13.76953125 6.50390625 C14.50558594 6.99761719 15.24164063 7.49132813 16 8 C14.203125 8.61328125 14.203125 8.61328125 12 9 C8.75 7.1875 8.75 7.1875 6 5 C6 4.34 6 3.68 6 3 C5.01 3.66 4.02 4.32 3 5 C2.01 5 1.02 5 0 5 C0 3.35 0 1.7 0 0 Z " fill="#D0B8D3" transform="translate(368,30)"/>
<path d="M0 0 C3.99824088 3.66505414 6.60168569 7.11112852 9 12 C8.67 12.66 8.34 13.32 8 14 C7.01 13.67 6.02 13.34 5 13 C4.67 12.01 4.34 11.02 4 10 C1.99983534 8.79117904 1.99983534 8.79117904 0 8 C0.66 7.67 1.32 7.34 2 7 C1.34 4.69 0.68 2.38 0 0 Z " fill="#D7C1DB" transform="translate(450,99)"/>
<path d="M0 0 C1.3274855 3.98245651 -0.00092171 6.44789543 -1.4375 10.1875 C-1.68048828 10.84169922 -1.92347656 11.49589844 -2.17382812 12.16992188 C-2.7743293 13.78303286 -3.38609203 15.3919435 -4 17 C-4.66 17 -5.32 17 -6 17 C-6.3721519 10.42531646 -6.3721519 10.42531646 -4.6875 8.5 C-4.130625 8.005 -3.57375 7.51 -3 7 C-1.85328866 4.71174269 -0.94434826 2.38335513 0 0 Z " fill="#9A619E" transform="translate(120,367)"/>
<path d="M0 0 C3.12915801 2.6862618 4.7642676 5.95391929 6.6875 9.5625 C7.62142578 11.29693359 7.62142578 11.29693359 8.57421875 13.06640625 C10 16 10 16 10 18 C9.34 18 8.68 18 8 18 C7.32845067 16.71086513 6.66291141 15.41859796 6 14.125 C5.62875 13.40570313 5.2575 12.68640625 4.875 11.9453125 C4 10 4 10 4 8 C3.34 8 2.68 8 2 8 C0.23537317 4.91190305 0 3.76687864 0 0 Z " fill="#DBC8DD" transform="translate(466,124)"/>
<path d="M0 0 C0.8971875 0.5259375 0.8971875 0.5259375 1.8125 1.0625 C4.10813214 2.33304698 4.10813214 2.33304698 7 1 C7.66 1.66 8.32 2.32 9 3 C8.67 3.66 8.34 4.32 8 5 C8.66 5.33 9.32 5.66 10 6 C10 6.66 10 7.32 10 8 C10.99 8 11.98 8 13 8 C13.33 7.34 13.66 6.68 14 6 C14.33 7.32 14.66 8.64 15 10 C8.49488185 8.78029035 4.57163228 5.73787346 0 1 C0 0.67 0 0.34 0 0 Z " fill="#9358A4" transform="translate(89,440)"/>
<path d="M0 0 C0.33 1.32 0.66 2.64 1 4 C0.1646875 4.3403125 0.1646875 4.3403125 -0.6875 4.6875 C-3.19910049 5.97749299 -3.19910049 5.97749299 -5.5 8.5 C-7.6790194 10.6790194 -9.19517152 11.8572921 -12 13 C-12 12.01 -12 11.02 -12 10 C-10.13671875 8.28125 -10.13671875 8.28125 -7.6875 6.5 C-4.92241262 4.46959767 -2.35520931 2.50002801 0 0 Z " fill="#BB8192" transform="translate(213,203)"/>
<path d="M0 0 C1 2 1 2 0.36328125 4.09375 C0.01652344 4.8878125 -0.33023438 5.681875 -0.6875 6.5 C-1.02136719 7.2940625 -1.35523438 8.088125 -1.69921875 8.90625 C-3.19558554 11.31481637 -4.3924752 11.98992724 -7 13 C-7 13.99 -7 14.98 -7 16 C-7.66 16 -8.32 16 -9 16 C-7.56691865 12.04093183 -5.66858051 8.71281819 -3.375 5.1875 C-2.74335937 4.21167969 -2.11171875 3.23585938 -1.4609375 2.23046875 C-0.73777344 1.12638672 -0.73777344 1.12638672 0 0 Z " fill="#CAA4B8" transform="translate(38,116)"/>
<path d="M0 0 C0.99 0.33 1.98 0.66 3 1 C2.38722388 3.96175123 1.74627478 5.38058783 0 8 C0.66 8.66 1.32 9.32 2 10 C-1.75 13 -1.75 13 -4 13 C-3.79503906 12.39671875 -3.59007812 11.7934375 -3.37890625 11.171875 C-2.97478516 9.97304687 -2.97478516 9.97304687 -2.5625 8.75 C-2.29566406 7.96109375 -2.02882813 7.1721875 -1.75390625 6.359375 C-1.08045292 4.25178012 -0.50849405 2.15246027 0 0 Z " fill="#A86D97" transform="translate(18,156)"/>
<path d="M0 0 C1.32 0.33 2.64 0.66 4 1 C4.07089844 1.54140625 4.14179687 2.0828125 4.21484375 2.640625 C5.31991126 5.96132537 7.31200763 8.08744565 9.5625 10.75 C10.38878906 11.73484375 11.21507812 12.7196875 12.06640625 13.734375 C13.02353516 14.85585938 13.02353516 14.85585938 14 16 C13.67 16.66 13.34 17.32 13 18 C0 3.77419355 0 3.77419355 0 0 Z " fill="#E5CEEC" transform="translate(45,394)"/>
<path d="M0 0 C0.66 0 1.32 0 2 0 C0.56691865 3.95906817 -1.33141949 7.28718181 -3.625 10.8125 C-4.57246094 12.27623047 -4.57246094 12.27623047 -5.5390625 13.76953125 C-6.02117187 14.50558594 -6.50328125 15.24164063 -7 16 C-7.66 15.34 -8.32 14.68 -9 14 C-8.34 14 -7.68 14 -7 14 C-6.855625 13.401875 -6.71125 12.80375 -6.5625 12.1875 C-6.1127561 10.43849596 -5.57107659 8.71322977 -5 7 C-4.34 7 -3.68 7 -3 7 C-3 6.01 -3 5.02 -3 4 C-2.34 4 -1.68 4 -1 4 C-0.67 2.68 -0.34 1.36 0 0 Z " fill="#D6ADAF" transform="translate(470,366)"/>
<path d="M0 0 C0 3.78483609 -1.10582515 4.77407931 -3.4375 7.6875 C-4.39462891 8.89986328 -4.39462891 8.89986328 -5.37109375 10.13671875 C-5.90863281 10.75160156 -6.44617188 11.36648438 -7 12 C-7.33 12 -7.66 12 -8 12 C-8.3125 9.8125 -8.3125 9.8125 -8 7 C-5.52552136 4.12425455 -3.1557398 2.10382653 0 0 Z " fill="#AA6F98" transform="translate(161,291)"/>
<path d="M0 0 C7.92 0.66 15.84 1.32 24 2 C24 2.33 24 2.66 24 3 C16.08 3 8.16 3 0 3 C0 2.01 0 1.02 0 0 Z " fill="#955CA1" transform="translate(140,457)"/>
<path d="M0 0 C-2.09950586 0.86555948 -4.2047907 1.71711277 -6.3125 2.5625 C-8.07013672 3.27599609 -8.07013672 3.27599609 -9.86328125 4.00390625 C-13 5 -13 5 -16 4 C-15.01 3.67 -14.02 3.34 -13 3 C-13 2.34 -13 1.68 -13 1 C-11.39796533 0.63631108 -9.79325797 0.28438048 -8.1875 -0.0625 C-7.29417969 -0.25972656 -6.40085937 -0.45695312 -5.48046875 -0.66015625 C-3 -1 -3 -1 0 0 Z " fill="#A46D95" transform="translate(340,483)"/>
<path d="M0 0 C2.64 0 5.28 0 8 0 C8.66 1.65 9.32 3.3 10 5 C10.66 5 11.32 5 12 5 C12 5.66 12 6.32 12 7 C7.39104317 5.68315519 3.85859765 3.84801255 0 1 C0 0.67 0 0.34 0 0 Z " fill="#B790C2" transform="translate(126,467)"/>
<path d="M0 0 C0.99 0 1.98 0 3 0 C3 0.99 3 1.98 3 3 C3.66 3 4.32 3 5 3 C6.625 4.375 6.625 4.375 8 6 C8 6.66 8 7.32 8 8 C8.639375 8.12375 9.27875 8.2475 9.9375 8.375 C10.618125 8.58125 11.29875 8.7875 12 9 C12.33 9.66 12.66 10.32 13 11 C9.37159027 10.38416899 7.13879117 8.86239708 4.25 6.625 C3.45078125 6.01914062 2.6515625 5.41328125 1.828125 4.7890625 C0.92320313 3.90347656 0.92320313 3.90347656 0 3 C0 2.01 0 1.02 0 0 Z " fill="#CDA7CE" transform="translate(50,306)"/>
<path d="M0 0 C0.66 0.33 1.32 0.66 2 1 C2 3.31 2 5.62 2 8 C0.35 8 -1.3 8 -3 8 C-3.75 6.25 -3.75 6.25 -4 4 C-2.0625 1.75 -2.0625 1.75 0 0 Z " fill="#B87790" transform="translate(60,88)"/>
<path d="M0 0 C5.93218718 3.22033018 9.91351925 7.70271014 14 13 C12.68 12.67 11.36 12.34 10 12 C10 11.34 10 10.68 10 10 C8.8553125 9.938125 8.8553125 9.938125 7.6875 9.875 C5 9 5 9 3.3125 6 C2.879375 5.01 2.44625 4.02 2 3 C1.34 2.67 0.68 2.34 0 2 C0 1.34 0 0.68 0 0 Z " fill="#DAC5DE" transform="translate(412,59)"/>
<path d="M0 0 C0.66 0 1.32 0 2 0 C2.45375 0.474375 2.9075 0.94875 3.375 1.4375 C5.22977487 3.22093737 6.50135592 3.5691993 9 4 C8.01 4.495 8.01 4.495 7 5 C7 5.66 7 6.32 7 7 C7.66 7 8.32 7 9 7 C8.67 8.32 8.34 9.64 8 11 C7.34 9.68 6.68 8.36 6 7 C5.34 7 4.68 7 4 7 C0 2.52941176 0 2.52941176 0 0 Z " fill="#945BA5" transform="translate(55,405)"/>
<path d="M0 0 C1.32 0.33 2.64 0.66 4 1 C2.35 5.29 0.7 9.58 -1 14 C-1.66 14 -2.32 14 -3 14 C-2.690625 12.948125 -2.38125 11.89625 -2.0625 10.8125 C-0.53071039 5.48280776 -0.53071039 5.48280776 0 0 Z " fill="#A0669D" transform="translate(123,352)"/>
<path d="M0 0 C0.99 0.33 1.98 0.66 3 1 C1.95153459 2.46845587 0.88556239 3.92442099 -0.1875 5.375 C-0.77917969 6.18710938 -1.37085938 6.99921875 -1.98046875 7.8359375 C-4.19553039 10.20952387 -5.93353141 11.03610141 -9 12 C-6.2520787 7.72545575 -3.30749011 3.85873847 0 0 Z " fill="#D0A7C5" transform="translate(39,187)"/>
<path d="M0 0 C0.53109375 0.24621094 1.0621875 0.49242187 1.609375 0.74609375 C0.619375 1.07609375 -0.370625 1.40609375 -1.390625 1.74609375 C-1.390625 2.40609375 -1.390625 3.06609375 -1.390625 3.74609375 C-2.2775 4.01421875 -3.164375 4.28234375 -4.078125 4.55859375 C-7.39695051 5.62082007 -7.39695051 5.62082007 -10.140625 7.43359375 C-10.883125 7.86671875 -11.625625 8.29984375 -12.390625 8.74609375 C-13.050625 8.41609375 -13.710625 8.08609375 -14.390625 7.74609375 C-12.4848257 6.37667507 -10.56555927 5.02598212 -8.640625 3.68359375 C-7.57328125 2.92949219 -6.5059375 2.17539062 -5.40625 1.3984375 C-2.390625 -0.25390625 -2.390625 -0.25390625 0 0 Z " fill="#D3A7AB" transform="translate(127.390625,32.25390625)"/>
<path d="M0 0 C0 4.65750345 -3.0130922 6.88972872 -6 10.25 C-8.11265431 12.09857252 -9.31835104 12.44132313 -12 13 C-8.19524578 8.43969176 -4.25030379 4.14910608 0 0 Z " fill="#E2B5BB" transform="translate(132,51)"/>
<path d="M0 0 C0.99 0.33 1.98 0.66 3 1 C0.14723863 3.93200474 -2.65079784 6.64315404 -6 9 C-6.33 8.01 -6.66 7.02 -7 6 C-4.87219421 3.65941363 -2.88437779 2.29299694 0 1 C0 0.67 0 0.34 0 0 Z " fill="#C794A4" transform="translate(424,426)"/>
<path d="M0 0 C3 0 3 0 4.6875 1.5625 C6.43416783 4.80631168 6.20922503 7.37343285 6 11 C3.02753198 8.45217026 1.58464712 5.54659117 0 2 C0 1.34 0 0.68 0 0 Z " fill="#BB95C5" transform="translate(25,360)"/>
<path d="M0 0 C3.53790403 3.69172595 3.59115883 7.09390595 4 12 C0.25561798 10.5505618 0.25561798 10.5505618 -0.8125 8.25 C-1.0526462 5.36824559 -0.57733402 2.82252185 0 0 Z " fill="#9E689F" transform="translate(18,254)"/>
<path d="M0 0 C0.71484375 1.703125 0.71484375 1.703125 1 4 C-0.43359375 6.359375 -0.43359375 6.359375 -2.4375 8.75 C-3.42556641 9.94882812 -3.42556641 9.94882812 -4.43359375 11.171875 C-5.20896484 12.07679688 -5.20896484 12.07679688 -6 13 C-6.33 11.68 -6.66 10.36 -7 9 C-6.01 8.34 -5.02 7.68 -4 7 C-4 6.01 -4 5.02 -4 4 C-3.01 3.67 -2.02 3.34 -1 3 C-0.67 2.01 -0.34 1.02 0 0 Z " fill="#BF838D" transform="translate(452,392)"/>
<path d="M0 0 C0.33 0 0.66 0 1 0 C0.28571429 8.57142857 0.28571429 8.57142857 -3 12 C-4.13084944 8.50464719 -4.08940511 7.21132116 -2.625 3.75 C-1 1 -1 1 0 0 Z " fill="#D5AAAB" transform="translate(478,348)"/>
<path d="M0 0 C2.4375 1.375 2.4375 1.375 5 4 C5.74023658 7.32585166 5.92860799 10.59914435 6 14 C2.70271893 9.79758295 0 5.47038401 0 0 Z " fill="#C49FCC" transform="translate(18,344)"/>
<path d="M0 0 C5.61 0.33 11.22 0.66 17 1 C17 1.33 17 1.66 17 2 C14.02148438 2.34179688 14.02148438 2.34179688 11.04296875 2.68359375 C8.80603607 2.97170735 8.80603607 2.97170735 6 4 C6 3.34 6 2.68 6 2 C4.68 2 3.36 2 2 2 C1.67 2.66 1.34 3.32 1 4 C0.67 2.68 0.34 1.36 0 0 Z " fill="#9E679C" transform="translate(88,330)"/>
<path d="M0 0 C1.49828872 3.88235819 0.43110582 6.43449288 -0.9375 10.25 C-1.31777344 11.32765625 -1.69804687 12.4053125 -2.08984375 13.515625 C-2.39019531 14.33546875 -2.69054687 15.1553125 -3 16 C-3.66 16 -4.32 16 -5 16 C-5.20626539 12.28722291 -4.8004795 10.22191069 -3 7 C-1.97007878 4.67890926 -0.98947987 2.3387706 0 0 Z " fill="#C5939B" transform="translate(263,86)"/>
<path d="M0 0 C4.17576168 0.68416434 7.88080407 2.01365009 11.8125 3.5625 C13.55466797 4.24505859 13.55466797 4.24505859 15.33203125 4.94140625 C16.21246094 5.29074219 17.09289062 5.64007813 18 6 C12.0061101 7.9979633 5.50533487 3.52021996 0 1 C0 0.67 0 0.34 0 0 Z " fill="#EAD8E9" transform="translate(326,11)"/>
<path d="M0 0 C0.99 0.33 1.98 0.66 3 1 C3.70211894 2.65204456 4.36971413 4.31923769 5 6 C5.66 6.33 6.32 6.66 7 7 C6.01 8.485 6.01 8.485 5 10 C3.96704564 8.90716423 2.94892165 7.80029421 1.9375 6.6875 C1.36902344 6.07261719 0.80054688 5.45773437 0.21484375 4.82421875 C-0.38650391 3.92123047 -0.38650391 3.92123047 -1 3 C-0.67 2.01 -0.34 1.02 0 0 Z " fill="#925AA3" transform="translate(49,395)"/>
<path d="M0 0 C0.58007812 0.20496094 1.16015625 0.40992188 1.7578125 0.62109375 C6.1621984 2.14009813 10.35677777 3.4047151 15 4 C12 6 12 6 10 5.6875 C9.34 5.460625 8.68 5.23375 8 5 C7.01 4.67 6.02 4.34 5 4 C4.01 4.495 4.01 4.495 3 5 C2.01 3.35 1.02 1.7 0 0 Z " fill="#C48A8F" transform="translate(292,216)"/>
<path d="M0 0 C0 0.99 0 1.98 0 3 C-1.57533086 3.86883706 -3.16064509 4.71959068 -4.75 5.5625 C-5.63171875 6.03816406 -6.5134375 6.51382813 -7.421875 7.00390625 C-10.20701188 8.07998186 -11.26980214 8.06528748 -14 7 C-11.15497903 5.10331936 -8.42700115 3.76736522 -5.3125 2.375 C-4.31863281 1.92898437 -3.32476562 1.48296875 -2.30078125 1.0234375 C-1.54152344 0.68570313 -0.78226562 0.34796875 0 0 Z " fill="#C68C8D" transform="translate(336,211)"/>
<path d="M0 0 C0.33 0.66 0.66 1.32 1 2 C0.54625 2.391875 0.0925 2.78375 -0.375 3.1875 C-2.16809237 4.96944965 -2.16809237 4.96944965 -3 7.625 C-3.33 8.40875 -3.66 9.1925 -4 10 C-4.99 10.33 -5.98 10.66 -7 11 C-7 7 -7 7 -5.46875 5.078125 C-4.8190625 4.47484375 -4.169375 3.8715625 -3.5 3.25 C-2.8503125 2.63640625 -2.200625 2.0228125 -1.53125 1.390625 C-1.0259375 0.93171875 -0.520625 0.4728125 0 0 Z " fill="#BA7D8E" transform="translate(84,63)"/>
<path d="M0 0 C5.46864457 1.01591421 10.76390013 2.07091057 16 4 C12.30516081 5.18234854 8.85646386 5.2804701 5 5 C3.1875 3.625 3.1875 3.625 2 2 C1.34 1.34 0.68 0.68 0 0 Z " fill="#BE99B6" transform="translate(314,9)"/>
<path d="M0 0 C-2 2 -2 2 -5.6875 2.0625 C-6.39261719 2.04316406 -7.09773437 2.02382812 -7.82421875 2.00390625 C-10.95849435 1.99827918 -13.91177588 2.48529598 -17 3 C-14.52776237 0.52776237 -13.03193317 0.41990229 -9.625 -0.1875 C-8.66851562 -0.36667969 -7.71203125 -0.54585937 -6.7265625 -0.73046875 C-4.12689671 -0.98745577 -2.45299695 -0.81960325 0 0 Z " fill="#DAB9C1" transform="translate(186,10)"/>
<path d="M0 0 C2.96404505 2.80804268 5.44499019 5.18315774 7 9 C6.34 9.66 5.68 10.32 5 11 C4.67 9.35 4.34 7.7 4 6 C3.01 6.33 2.02 6.66 1 7 C0.67 4.69 0.34 2.38 0 0 Z " fill="#9D639E" transform="translate(32,288)"/>
<path d="M0 0 C3.23861303 1.44424635 5.61969163 3.25772247 8.25 5.625 C8.95640625 6.25664062 9.6628125 6.88828125 10.390625 7.5390625 C10.92171875 8.02117187 11.4528125 8.50328125 12 9 C10.68 9.33 9.36 9.66 8 10 C7.59007812 9.50628906 7.18015625 9.01257813 6.7578125 8.50390625 C6.21898437 7.86324219 5.68015625 7.22257812 5.125 6.5625 C4.59132813 5.92441406 4.05765625 5.28632813 3.5078125 4.62890625 C2.0777243 2.89194996 2.0777243 2.89194996 0 2 C0 1.34 0 0.68 0 0 Z " fill="#E3B9C1" transform="translate(316,278)"/>
<path d="M0 0 C1.32 0 2.64 0 4 0 C2.34832443 3.5786304 0.21713508 6.74820188 -2 10 C-2.625 8.1875 -2.625 8.1875 -3 6 C-2.34 5.01 -1.68 4.02 -1 3 C-0.34 3 0.32 3 1 3 C0.67 2.01 0.34 1.02 0 0 Z " fill="#A56D9B" transform="translate(24,200)"/>
<path d="M0 0 C0.66 0.99 1.32 1.98 2 3 C0.56451678 7.15534616 -1.17044898 10.63148688 -4 14 C-3.46148032 8.72250715 -2.22656164 4.74354436 0 0 Z " fill="#DCB2BB" transform="translate(110,78)"/>
<path d="M0 0 C0.66 0.33 1.32 0.66 2 1 C0.68 1.33 -0.64 1.66 -2 2 C-2 2.66 -2 3.32 -2 4 C-5 6 -5 6 -8 6 C-8.33 6.66 -8.66 7.32 -9 8 C-9.66 7.34 -10.32 6.68 -11 6 C-9.73168307 5.18357746 -8.46024069 4.37200895 -7.1875 3.5625 C-6.47980469 3.11003906 -5.77210938 2.65757813 -5.04296875 2.19140625 C-3 1 -3 1 0 0 Z " fill="#E0B8B7" transform="translate(149,40)"/>
<path d="M0 0 C0.99 0.33 1.98 0.66 3 1 C2.40072174 4.35595828 1.15377564 6.37801226 -1 9 C-1.625 5.625 -1.625 5.625 -2 2 C-1.34 1.34 -0.68 0.68 0 0 Z " fill="#C89098" transform="translate(459,380)"/>
<path d="M0 0 C0.66 0.33 1.32 0.66 2 1 C-0.475 6.94 -0.475 6.94 -3 13 C-5 10 -5 10 -4.609375 7.7734375 C-4.18398437 6.58621094 -4.18398437 6.58621094 -3.75 5.375 C-3.47671875 4.57835938 -3.2034375 3.78171875 -2.921875 2.9609375 C-2 1 -2 1 0 0 Z " fill="#BD828F" transform="translate(110,75)"/>
<path d="M0 0 C-0.57344937 2.86724686 -0.8614515 3.8614515 -3 6 C-5.125 5.625 -5.125 5.625 -7 5 C-6 2 -6 2 -4.0625 0.8125 C-2 0 -2 0 0 0 Z " fill="#D3A5AB" transform="translate(113,41)"/>
<path d="M0 0 C0 3.48961209 -0.90379374 5.11480295 -2.5 8.1875 C-2.9640625 9.08855469 -3.428125 9.98960938 -3.90625 10.91796875 C-4.2671875 11.60503906 -4.628125 12.29210937 -5 13 C-5.66 12.34 -6.32 11.68 -7 11 C-6.21572648 9.35063087 -5.42234741 7.70558873 -4.625 6.0625 C-4.18414062 5.14597656 -3.74328125 4.22945313 -3.2890625 3.28515625 C-2 1 -2 1 0 0 Z " fill="#C4939F" transform="translate(271,72)"/>
<path d="M0 0 C-1.45804169 0.81302325 -2.91644315 1.62540131 -4.375 2.4375 C-5.18710938 2.88996094 -5.99921875 3.34242187 -6.8359375 3.80859375 C-8.20996622 4.5650536 -9.59709261 5.29854631 -11 6 C-11.66 5.67 -12.32 5.34 -13 5 C-13 4.34 -13 3.68 -13 3 C-11.40084119 2.30093058 -9.79544955 1.61610532 -8.1875 0.9375 C-7.29417969 0.55464844 -6.40085938 0.17179687 -5.48046875 -0.22265625 C-3 -1 -3 -1 0 0 Z " fill="#C58A8D" transform="translate(153,22)"/>
<path d="M0 0 C0.66 0 1.32 0 2 0 C1.45660208 4.56454251 0.20536179 7.9728176 -2 12 C-3.40907283 9.18185434 -2.50872691 7.82722796 -1.5625 4.875 C-1.27503906 3.96492188 -0.98757812 3.05484375 -0.69140625 2.1171875 C-0.46324219 1.41851562 -0.23507813 0.71984375 0 0 Z " fill="#AD739A" transform="translate(143,286)"/>
<path d="M0 0 C1.32 0.33 2.64 0.66 4 1 C1.36 2.98 -1.28 4.96 -4 7 C-4.66 6.67 -5.32 6.34 -6 6 C-5.09972412 4.96468274 -4.17906965 3.94705835 -3.25 2.9375 C-2.48429687 2.08478516 -2.48429687 2.08478516 -1.703125 1.21484375 C-1.14109375 0.81394531 -0.5790625 0.41304687 0 0 Z " fill="#DDB8C1" transform="translate(379,182)"/>
<path d="M0 0 C2.34914492 2.34914492 2.73140357 3.95679446 3.625 7.125 C3.88539063 8.03507813 4.14578125 8.94515625 4.4140625 9.8828125 C4.70410156 10.93082031 4.70410156 10.93082031 5 12 C4.01 12.33 3.02 12.66 2 13 C1.66127487 11.58461283 1.32925376 10.16762037 1 8.75 C0.814375 7.96109375 0.62875 7.1721875 0.4375 6.359375 C0 4 0 4 0 0 Z " fill="#DFC7DD" transform="translate(480,151)"/>
<path d="M0 0 C0.33 0 0.66 0 1 0 C1.05410687 1.77049689 1.09284119 3.54146849 1.125 5.3125 C1.14820313 6.29863281 1.17140625 7.28476563 1.1953125 8.30078125 C1 11 1 11 -1 14 C-2.13732426 10.59598052 -1.83989957 8.22543336 -1.0625 4.75 C-0.86785156 3.85796875 -0.67320312 2.9659375 -0.47265625 2.046875 C-0.31667969 1.37140625 -0.16070312 0.6959375 0 0 Z " fill="#E2B9BB" transform="translate(232,144)"/>
<path d="M0 0 C2.64 0 5.28 0 8 0 C7.34 0.66 6.68 1.32 6 2 C4.98758315 3.32392972 3.98560611 4.65599167 3 6 C1.5 4.6875 1.5 4.6875 0 3 C0 2.01 0 1.02 0 0 Z " fill="#C699AB" transform="translate(221,1)"/>
<path d="M0 0 C1.98 0.495 1.98 0.495 4 1 C4.33 2.98 4.66 4.96 5 7 C4.01 6.67 3.02 6.34 2 6 C2 5.34 2 4.68 2 4 C1.01 3.67 0.02 3.34 -1 3 C-0.67 2.01 -0.34 1.02 0 0 Z " fill="#9154A3" transform="translate(108,451)"/>
<path d="M0 0 C0.66 0 1.32 0 2 0 C1.01 2.97 0.02 5.94 -1 9 C-1.99 9 -2.98 9 -4 9 C-3.52418802 7.68628013 -3.04424851 6.37405454 -2.5625 5.0625 C-2.29566406 4.33160156 -2.02882812 3.60070312 -1.75390625 2.84765625 C-1 1 -1 1 0 0 Z " fill="#A46DA0" transform="translate(132,335)"/>
<path d="M0 0 C0.33 1.32 0.66 2.64 1 4 C1.66 4 2.32 4 3 4 C2.6875 5.875 2.6875 5.875 2 8 C1.01 8.66 0.02 9.32 -1 10 C-0.67 6.7 -0.34 3.4 0 0 Z " fill="#AC6F97" transform="translate(148,268)"/>
<path d="M0 0 C1.485 0.99 1.485 0.99 3 2 C3 2.66 3 3.32 3 4 C3.66 4 4.32 4 5 4 C5 4.66 5 5.32 5 6 C6.32 6.66 7.64 7.32 9 8 C8.67 8.66 8.34 9.32 8 10 C4.27549784 7.89484661 2.3204079 6.75732776 0.625 2.75 C0.41875 1.8425 0.2125 0.935 0 0 Z " fill="#C9979C" transform="translate(269,198)"/>
<path d="M0 0 C2.72426311 2.35277269 3.8141763 4.62496331 5 8 C2.03 7.505 2.03 7.505 -1 7 C-0.67 4.69 -0.34 2.38 0 0 Z " fill="#C8ACCB" transform="translate(459,113)"/>
<path d="M0 0 C-3.00617269 3.00617269 -5.82381598 2.59585316 -10 3 C-9.67 2.01 -9.34 1.02 -9 0 C-5.8033 -1.37001429 -3.30096158 -0.8252404 0 0 Z " fill="#CBA5CD" transform="translate(192,452)"/>
<path d="M0 0 C1.12377697 3.30435084 0.89554742 5.0506862 -0.4375 8.25 C-0.72496094 8.95640625 -1.01242187 9.6628125 -1.30859375 10.390625 C-1.53675781 10.92171875 -1.76492188 11.4528125 -2 12 C-2.66 12 -3.32 12 -4 12 C-3.71640113 10.5608866 -3.42278601 9.12374482 -3.125 7.6875 C-2.96257812 6.88699219 -2.80015625 6.08648437 -2.6328125 5.26171875 C-2 3 -2 3 0 0 Z " fill="#C38B92" transform="translate(483,334)"/>
<path d="M0 0 C3.37503669 1.1858237 5.64722731 2.27573689 8 5 C7.67 5.66 7.34 6.32 7 7 C2.33532934 5.52694611 2.33532934 5.52694611 0.6875 2.9375 C0 1 0 1 0 0 Z " fill="#9F64A0" transform="translate(54,313)"/>
<path d="M0 0 C0.598125 0.763125 1.19625 1.52625 1.8125 2.3125 C3.46959332 4.3483575 5.10297674 6.1978279 7 8 C6.01 8.66 5.02 9.32 4 10 C0 3.375 0 3.375 0 0 Z " fill="#B07693" transform="translate(136,214)"/>
<path d="M0 0 C2.58047436 1.29023718 2.67022964 2.27089391 3.625 4.9375 C3.88539063 5.64777344 4.14578125 6.35804687 4.4140625 7.08984375 C5 9 5 9 5 11 C4.34 11 3.68 11 3 11 C2.49384702 9.73160474 1.99530901 8.46016898 1.5 7.1875 C1.2215625 6.47980469 0.943125 5.77210937 0.65625 5.04296875 C0 3 0 3 0 0 Z " fill="#C79498" transform="translate(225,90)"/>
<path d="M0 0 C2.5 1.375 2.5 1.375 5 3 C5 3.66 5 4.32 5 5 C5.99 5.33 6.98 5.66 8 6 C8 6.33 8 6.66 8 7 C5.6875 7.3125 5.6875 7.3125 3 7 C1.18116991 4.6167054 0 3.04181663 0 0 Z " fill="#BF9FC4" transform="translate(407,56)"/>
<path d="M0 0 C2.79872437 2.52788007 4.45773019 4.20411134 5 8 C2.525 7.01 2.525 7.01 0 6 C0 4.02 0 2.04 0 0 Z " fill="#965DA6" transform="translate(112,433)"/>
<path d="M0 0 C2.09782787 2.09782787 2.6509396 3.3799207 3.625 6.125 C4.01558594 7.21167969 4.01558594 7.21167969 4.4140625 8.3203125 C4.70410156 9.15175781 4.70410156 9.15175781 5 10 C4.34 10.66 3.68 11.32 3 12 C-0.42857143 4.71428571 -0.42857143 4.71428571 0 0 Z " fill="#DEB8B9" transform="translate(255,163)"/>
<path d="M0 0 C0 0.99 0 1.98 0 3 C-0.66 3.66 -1.32 4.32 -2 5 C-2.69748583 6.31747324 -3.36959957 7.64914193 -4 9 C-4.99 9 -5.98 9 -7 9 C-5.44499019 5.18315774 -2.96404505 2.80804268 0 0 Z " fill="#DBB2C3" transform="translate(71,74)"/>
<path d="M0 0 C1.32 0.33 2.64 0.66 4 1 C1.36 2.98 -1.28 4.96 -4 7 C-2.73033708 1.92134831 -2.73033708 1.92134831 0 0 Z " fill="#C38C90" transform="translate(132,48)"/>
<path d="M0 0 C0.66 0.66 1.32 1.32 2 2 C1.67 2.66 1.34 3.32 1 4 C1.66 4.33 2.32 4.66 3 5 C-2.75 4.25 -2.75 4.25 -5 2 C-3.35 1.34 -1.7 0.68 0 0 Z " fill="#9357A0" transform="translate(168,481)"/>
<path d="M0 0 C2.31 0.66 4.62 1.32 7 2 C6.01 2.99 5.02 3.98 4 5 C3.01 4.67 2.02 4.34 1 4 C0.3125 1.9375 0.3125 1.9375 0 0 Z " fill="#AD6B97" transform="translate(303,450)"/>
<path d="M0 0 C2.88437779 1.29299694 4.87219421 2.65941363 7 5 C6.01 5.495 6.01 5.495 5 6 C3.02 4.68 1.04 3.36 -1 2 C-0.67 1.34 -0.34 0.68 0 0 Z " fill="#C8A8D1" transform="translate(104,452)"/>
<path d="M0 0 C-0.125 1.8125 -0.125 1.8125 -1 4 C-4.0625 5.75 -4.0625 5.75 -7 7 C-3.86206897 0 -3.86206897 0 0 0 Z " fill="#B27893" transform="translate(391,447)"/>
<path d="M0 0 C0.66 0.66 1.32 1.32 2 2 C1.625 4.625 1.625 4.625 1 7 C0.34 7 -0.32 7 -1 7 C-2.625 4.5 -2.625 4.5 -4 2 C-2.68 1.34 -1.36 0.68 0 0 Z " fill="#9656A8" transform="translate(78,424)"/>
<path d="M0 0 C0.33 1.32 0.66 2.64 1 4 C-0.65 5.32 -2.3 6.64 -4 8 C-4 6.35 -4 4.7 -4 3 C-2.68 2.67 -1.36 2.34 0 2 C0 1.34 0 0.68 0 0 Z " fill="#CF9EAE" transform="translate(431,419)"/>
<path d="M0 0 C0.66 0 1.32 0 2 0 C2.33 3.3 2.66 6.6 3 10 C2.01 9.67 1.02 9.34 0 9 C0 6.03 0 3.06 0 0 Z " fill="#C68D91" transform="translate(252,155)"/>
<path d="M0 0 C0 3.15081975 -0.27898465 4.41847698 -2 7 C-4.125 7.75 -4.125 7.75 -6 8 C-4.55746343 4.63408134 -2.66735273 2.48952921 0 0 Z " fill="#B77B8E" transform="translate(74,73)"/>
<path d="M0 0 C2.475 0.495 2.475 0.495 5 1 C4.34 2.32 3.68 3.64 3 5 C2.01 5 1.02 5 0 5 C0 3.35 0 1.7 0 0 Z " fill="#C8ACC9" transform="translate(368,30)"/>
<path d="M0 0 C-2.25 1.625 -2.25 1.625 -5 3 C-7.3125 2.1875 -7.3125 2.1875 -9 1 C-3.375 -1.125 -3.375 -1.125 0 0 Z " fill="#9D67A0" transform="translate(199,452)"/>
<path d="M0 0 C0.66 0 1.32 0 2 0 C2.66 0.99 3.32 1.98 4 3 C6.05003955 4.19232613 6.05003955 4.19232613 8 5 C7.67 6.32 7.34 7.64 7 9 C4.03595495 6.19195732 1.55500981 3.81684226 0 0 Z " fill="#CEAED8" transform="translate(59,412)"/>
<path d="M0 0 C0.66 0 1.32 0 2 0 C1.46930939 3.82097239 0.50298434 6.06171403 -2 9 C-2.33 8.01 -2.66 7.02 -3 6 C-2.67 5.34 -2.34 4.68 -2 4 C-1.34 4 -0.68 4 0 4 C0 2.68 0 1.36 0 0 Z " fill="#CDA6C2" transform="translate(136,301)"/>
<path d="M0 0 C2.04119788 1.61594832 4.04072937 3.2856382 6 5 C6 5.66 6 6.32 6 7 C4.125 6.875 4.125 6.875 2 6 C0.75 2.9375 0.75 2.9375 0 0 Z " fill="#E0B9C0" transform="translate(336,297)"/>
<path d="M0 0 C0.99 0 1.98 0 3 0 C2.88637738 1.4800841 2.75877092 2.95910074 2.625 4.4375 C2.52058594 5.67306641 2.52058594 5.67306641 2.4140625 6.93359375 C2.27742187 7.61550781 2.14078125 8.29742187 2 9 C1.01 9.495 1.01 9.495 0 10 C0 6.7 0 3.4 0 0 Z " fill="#985D9E" transform="translate(2,272)"/>
<path d="M0 0 C0.66 0.33 1.32 0.66 2 1 C-0.25 3.5625 -0.25 3.5625 -3 6 C-4.32 5.67 -5.64 5.34 -7 5 C-4.69 3.35 -2.38 1.7 0 0 Z " fill="#D4AEC2" transform="translate(188,269)"/>
<path d="M0 0 C-3.44069624 2.29379749 -4.72290301 3 -9 3 C-9 2.34 -9 1.68 -9 1 C-3.375 -1.125 -3.375 -1.125 0 0 Z " fill="#B67C90" transform="translate(197,217)"/>
<path d="M0 0 C0.66 0.33 1.32 0.66 2 1 C1.34 4.63 0.68 8.26 0 12 C-0.33 12 -0.66 12 -1 12 C-1.02698189 10.37509046 -1.04638757 8.75005367 -1.0625 7.125 C-1.07410156 6.22007812 -1.08570313 5.31515625 -1.09765625 4.3828125 C-1 2 -1 2 0 0 Z " fill="#A26D9D" transform="translate(4,206)"/>
<path d="M0 0 C0.99 0.33 1.98 0.66 3 1 C3 2.98 3 4.96 3 7 C2.01 7 1.02 7 0 7 C0 4.69 0 2.38 0 0 Z " fill="#D0B5CB" transform="translate(491,188)"/>
<path d="M0 0 C0.33 0 0.66 0 1 0 C0.14285714 8.57142857 0.14285714 8.57142857 -2 12 C-2.28571429 3.42857143 -2.28571429 3.42857143 0 0 Z " fill="#DEB6B8" transform="translate(230,160)"/>
<path d="M0 0 C2.97 0 5.94 0 9 0 C9.33 0.99 9.66 1.98 10 3 C3.375 2.25 3.375 2.25 0 0 Z " fill="#C197CB" transform="translate(153,481)"/>
<path d="M0 0 C0.86625 0.3403125 0.86625 0.3403125 1.75 0.6875 C-4 4.6875 -4 4.6875 -6.25 4.6875 C-6.25 4.0275 -6.25 3.3675 -6.25 2.6875 C-3.02697842 -0.42041367 -3.02697842 -0.42041367 0 0 Z " fill="#BA8BA2" transform="translate(383.25,460.3125)"/>
<path d="M0 0 C1.98 0 3.96 0 6 0 C4.35 1.65 2.7 3.3 1 5 C0.01 4.67 -0.98 4.34 -2 4 C-1.34 3.67 -0.68 3.34 0 3 C0 2.01 0 1.02 0 0 Z " fill="#B17892" transform="translate(394,449)"/>
<path d="M0 0 C5.75 0.75 5.75 0.75 8 3 C6.25 3.75 6.25 3.75 4 4 C1.75 2.0625 1.75 2.0625 0 0 Z " fill="#A8719B" transform="translate(284,443)"/>
<path d="M0 0 C0 0.99 0 1.98 0 3 C-2 4.6875 -2 4.6875 -4 6 C-4.33 4.35 -4.66 2.7 -5 1 C-3.35 0.67 -1.7 0.34 0 0 Z " fill="#DCB8C0" transform="translate(444,407)"/>
<path d="M0 0 C1.32 0.33 2.64 0.66 4 1 C4.33 3.31 4.66 5.62 5 8 C2.74754119 5.31158141 1.11786042 3.35358125 0 0 Z " fill="#AB82B8" transform="translate(31,371)"/>
<path d="M0 0 C2.1519437 3.22791555 2.20086443 4.28400809 2 8 C1.01 7.67 0.02 7.34 -1 7 C-1.33 6.01 -1.66 5.02 -2 4 C-1.34 4 -0.68 4 0 4 C0 2.68 0 1.36 0 0 Z " fill="#D5BBD1" transform="translate(485,163)"/>
<path d="M0 0 C0 3.38023517 -0.87455622 5.83468937 -2 9 C-2.66 9 -3.32 9 -4 9 C-2.25 2.25 -2.25 2.25 0 0 Z " fill="#AF7490" transform="translate(41,114)"/>
</svg>
